<svg version="1.1" xmlns="http://www.w3.org/2000/svg" xmlns:xlink="http://www.w3.org/1999/xlink" width="61.00057" height="61.855" viewBox="0,0,61.00057,61.855"><g transform="translate(-289.49972,-149.0725)"><g stroke-miterlimit="10"><path d="M347.199,195.3835c3.4,3.521 3.303,9.152 -0.218,12.552c-1.663,1.607 -3.854,2.492 -6.166,2.492v0c-2.43,0 -4.696,-0.962 -6.384,-2.71l-14.524,-15.038l-14.743,14.823c-1.677,1.687 -3.914,2.617 -6.293,2.617c-2.362,0 -4.585,-0.918 -6.259,-2.583c-3.47,-3.452 -3.485,-9.082 -0.033,-12.552l14.993,-15.076l-14.771,-15.294c-3.4,-3.52 -3.302,-9.151 0.218,-12.551c1.664,-1.606 3.853,-2.491 6.165,-2.491c2.43,0 4.698,0.962 6.386,2.71l14.523,15.036l14.743,-14.822c1.678,-1.688 3.914,-2.617 6.294,-2.617c2.361,0 4.584,0.916 6.257,2.582c3.471,3.451 3.486,9.083 0.035,12.553l-14.994,15.076z" fill="#be2026" stroke="#be2026"/><path d="M345.881,196.6585c2.703,2.798 2.626,7.256 -0.172,9.961c-2.798,2.701 -7.258,2.624 -9.961,-0.174l-15.822,-16.382l-16.06,16.148c-2.743,2.758 -7.202,2.77 -9.962,0.026c-2.757,-2.743 -2.77,-7.202 -0.026,-9.962l16.259,-16.349l-16.019,-16.585c-2.702,-2.798 -2.625,-7.257 0.174,-9.961c2.797,-2.702 7.257,-2.624 9.96,0.174l15.821,16.381l16.061,-16.147c2.744,-2.758 7.204,-2.771 9.962,-0.028c2.759,2.744 2.77,7.204 0.027,9.963l-16.261,16.348z" fill="#dd2726" stroke="#bc192d"/></g></g></svg>