<svg version="1.1" xmlns="http://www.w3.org/2000/svg" xmlns:xlink="http://www.w3.org/1999/xlink" width="129.07673" height="51.43557" viewBox="0,0,129.07673,51.43557"><defs><linearGradient x1="255.46291" y1="180.0002" x2="384.53822" y2="180.0002" gradientUnits="userSpaceOnUse" id="color-1"><stop offset="0.012" stop-color="#66b3e3"/><stop offset="1" stop-color="#1c75bc"/></linearGradient></defs><g transform="translate(-255.46163,-154.28221)"><g stroke-miterlimit="10"><path d="M384.53837,197.62218c0,4.47069 -5.46655,8.09561 -12.20542,8.09561h-104.66731c-6.74028,0 -12.204,-3.62585 -12.204,-8.09561v-35.24529c0,-4.47069 5.46372,-8.09467 12.204,-8.09467h104.6659c6.74312,0 12.20542,3.62397 12.20542,8.09467v35.24529z" fill="url(#color-1)" stroke="none" stroke-width="1"/><path d="M379.6945,162.37688v35.24435c0,2.69258 -3.30064,4.88277 -7.36297,4.88277h-104.6659c-4.05807,0 -7.36155,-2.19019 -7.36155,-4.88277v-35.24529c0,-2.69258 3.30348,-4.88277 7.36155,-4.88277h104.6659c4.06233,0 7.36297,2.19113 7.36297,4.88371z" fill="#27aae1" stroke="none" stroke-width="1"/><text transform="translate(264.60911,187.73256) scale(0.64438,0.64438)" font-size="40" xml:space="preserve" fill="#ffffff" stroke="#000000" stroke-width="2" font-family="Marker" font-weight="normal" text-anchor="start"><tspan x="0" dy="0">Atualizar</tspan></text></g></g></svg>