<svg version="1.1" xmlns="http://www.w3.org/2000/svg" xmlns:xlink="http://www.w3.org/1999/xlink" width="129.07673" height="51.81633" viewBox="0,0,129.07673,51.81633"><defs><linearGradient x1="255.46291" y1="180.00019" x2="384.53822" y2="180.00019" gradientUnits="userSpaceOnUse" id="color-1"><stop offset="0.012" stop-color="#a7a9ac"/><stop offset="1" stop-color="#414042"/></linearGradient><linearGradient x1="260.30479" y1="180.00076" x2="379.69648" y2="180.00076" gradientUnits="userSpaceOnUse" id="color-2"><stop offset="0" stop-color="#d1d2d3"/><stop offset="1" stop-color="#a4a5a8"/></linearGradient></defs><g transform="translate(-255.46164,-154.09183)"><g stroke-miterlimit="10"><path d="M384.53837,197.75262c0,4.50379 -5.46655,8.15554 -12.20542,8.15554h-104.66731c-6.74028,0 -12.204,-3.65269 -12.204,-8.15554v-35.5062c0,-4.50379 5.46372,-8.15459 12.204,-8.15459h104.6659c6.74312,0 12.20542,3.6508 12.20542,8.15459v35.5062z" fill="url(#color-1)" stroke="none" stroke-width="1"/><path d="M379.69521,162.24785v35.50525c0,2.71251 -3.30064,4.91891 -7.36297,4.91891h-104.6659c-4.05807,0 -7.36155,-2.2064 -7.36155,-4.91891v-35.5062c0,-2.71251 3.30348,-4.91891 7.36155,-4.91891h104.6659c4.06233,0 7.36297,2.20735 7.36297,4.91986z" fill="url(#color-2)" stroke="none" stroke-width="1"/><text transform="translate(264.60911,187.73256) scale(0.64438,0.64438)" font-size="40" xml:space="preserve" fill="#ffffff" stroke="#000000" stroke-width="2" font-family="Marker" font-weight="normal" text-anchor="start"><tspan x="0" dy="0">Atualizar</tspan></text></g></g></svg>