<svg viewBox="0,0,117.04283,67.42649" height="67.42649" width="117.04283" xmlns:xlink="http://www.w3.org/1999/xlink" xmlns="http://www.w3.org/2000/svg" version="1.1"><g transform="translate(-181.47858,-146.28676)"><g style="mix-blend-mode: normal" stroke-dashoffset="0" stroke-dasharray="" stroke-miterlimit="10" data-paper-data="{&quot;isPaintingLayer&quot;:true}"><path stroke-linejoin="miter" stroke-linecap="butt" stroke-width="2" stroke="#333333" stroke-opacity="0.50196" fill-rule="nonzero" fill="#000000" fill-opacity="0.50196" d="M182.47858,212.71326v-65.42649h115.04283v65.42649z"></path><text style="mix-blend-mode: normal" text-anchor="start" font-weight="normal" font-family="Marker" stroke-dashoffset="0" stroke-dasharray="" stroke-miterlimit="10" stroke-linejoin="miter" stroke-linecap="butt" stroke-width="1" stroke="none" fill-rule="nonzero" fill="#ffffff" xml:space="preserve" font-size="40" transform="translate(183.62505,161.88542) scale(0.37551,0.37551)"><tspan dy="0" x="0">Opções Do Gato</tspan><tspan dy="48px" x="0">Scratch</tspan></text><g fill-rule="evenodd"><path stroke-linejoin="round" stroke-linecap="round" stroke-width="1.2" stroke="#001026" fill="#ffab19" d="M266.52092,197.9151c0.38463,0.19232 1.20198,0.62503 0.04808,2.25972c-1.1539,1.63469 -4.47136,1.97125 -4.856,1.97125c-1.49045,0.04808 -3.31746,0.04808 -5.33679,-0.62503c-5.86566,-1.92317 -5.91374,-8.22154 -4.03865,-9.2312c1.82701,-1.00966 2.64436,2.88475 5.28871,5.24063c1.1539,1.05774 2.5482,1.44238 3.7021,1.68277c1.63469,0.28848 4.75984,-1.53853 5.19255,-1.29814z"></path><path stroke-linejoin="miter" stroke-linecap="butt" stroke-width="1" stroke="none" fill="#ffffff" d="M254.59728,194.02069c0.76927,1.29814 2.25972,3.12515 2.25972,3.12515c0,0 -1.77893,-0.43271 -2.78859,0.38463c-0.81735,0.62503 -0.62503,1.68277 -0.52887,2.01933c-0.62503,-0.62503 -1.3943,-1.49045 -1.87509,-3.17323c-0.48079,-1.68277 0,-3.7021 0.96158,-3.99057c0.96158,-0.19232 1.20198,0.52887 1.97125,1.63469z"></path></g><path stroke-linejoin="round" stroke-linecap="round" stroke-width="1.2" stroke="#001026" fill-rule="evenodd" fill="#ffab19" d="M268.92487,202.91534c-0.86543,0.57695 -3.84633,2.69243 -7.64459,3.89441l-0.19232,0.04808c-0.19232,0.04808 -0.28848,0.28848 -0.19232,0.48079c0.81735,1.1539 2.3078,3.4617 -0.33655,4.27905c-2.5482,0.81735 -7.30804,-5.96182 -5.28871,-7.74075c0.9135,-0.67311 1.73085,-0.33655 2.16356,-0.14424c0.2404,0.09616 0.48079,0.09616 0.72119,0.04808c0.57695,-0.19232 1.63469,-0.57695 2.45204,-1.00966c2.0674,-1.05774 2.5482,-1.49045 3.50978,-2.21164c0.96158,-0.72119 3.17323,-2.50012 4.95216,-0.96158c1.53853,1.29814 0.67311,2.74051 -0.14424,3.31746z"></path><path stroke-linejoin="round" stroke-linecap="round" stroke-width="1.2" stroke="#001026" fill-rule="evenodd" fill="#ffab19" d="M276.56946,192.91487c0.2404,0.19232 3.17323,3.65402 4.13481,2.78859c1.1539,-1.00966 2.74051,-2.98091 4.47136,-1.3943c1.73085,1.58661 -1.53853,4.27905 -2.93283,5.00024c-3.31746,1.49045 -6.0099,-1.34622 -6.58685,-2.11548c-0.57695,-0.76927 -1.58661,-2.0674 -1.58661,-3.31746c0.04808,-1.34622 1.68277,-1.68277 2.50012,-0.96158z"></path><g fill-rule="evenodd"><path stroke-linejoin="round" stroke-linecap="round" stroke-width="1.2" stroke="#001026" fill="#ffab19" d="M276.61754,204.11732c1.00966,0.9135 3.22131,2.78859 3.22131,2.78859c0,0 6.87532,-1.20198 6.87532,2.25972c0,2.0674 -3.4617,2.5482 -8.12538,2.11548c-0.28848,-0.04808 -0.57695,-0.14424 -0.81735,-0.33655c-1.05774,-0.9135 -4.08673,-3.60594 -6.0099,-5.48103c-2.83667,-2.78859 -5.19255,-4.6156 -5.19255,-4.6156c-4.08673,-3.99057 -0.76927,-5.67334 0.52887,-7.98114c1.20198,-1.97125 1.73085,-1.58661 4.6156,-1.00966c1.63469,0.2404 2.59628,0.38463 3.65402,0.33655c1.58661,-0.04808 1.29814,2.25972 0.86543,3.4617c0,0 -0.67311,1.77893 -1.29814,2.69243c-0.76927,1.10582 -1.34622,1.82701 -1.92317,2.25972z"></path><path stroke-linejoin="miter" stroke-linecap="butt" stroke-width="1" stroke="none" fill="#ffffff" d="M272.57889,200.55946c0,0 -0.72119,-0.57695 -1.49045,-1.29814c-0.96158,-0.86543 -1.92317,-1.58661 -0.96158,-3.07707c0.86543,-1.1539 1.68277,-2.69243 3.84633,-1.29814c2.0674,1.29814 1.1539,2.50012 1.1539,2.50012c-1.05774,2.16356 -2.5482,3.17323 -2.5482,3.17323z"></path></g><path stroke-linejoin="round" stroke-linecap="round" stroke-width="1.2" stroke="#001026" fill-rule="evenodd" fill="#ffab19" d="M265.31894,196.61697c1.05774,1.34622 2.69243,3.02899 0.62503,4.42329c-2.83667,1.58661 -5.19255,-3.22131 -5.67334,-4.90408c-0.43271,-1.49045 0.81735,-2.45204 1.87509,-3.26938c2.0674,-1.49045 3.79826,-2.83667 5.72142,-2.11548c2.40396,0.86543 0.67311,2.78859 -0.52887,3.65402c-0.72119,0.52887 -1.44238,1.10582 -1.97125,1.44238c-0.14424,0.2404 -0.19232,0.52887 -0.04808,0.76927z"></path><g fill-rule="evenodd"><path stroke-linejoin="miter" stroke-linecap="butt" stroke-width="1.2" stroke="#001026" fill="#ffab19" d="M280.46388,164.2116c0.14424,-0.09616 0.38463,-0.04808 0.43271,0.14424l1.25006,5.14447c0,0 3.07707,2.25972 3.99057,3.84633c1.53853,2.64436 1.58661,4.80792 1.58661,4.80792c0,0 3.41362,1.00966 3.99057,3.75018c0.57695,2.74051 -1.53853,7.93307 -10.57742,9.712c-9.03889,1.77893 -16.29884,-0.67311 -19.71247,-6.15414c-3.41362,-5.48103 1.97125,-12.0198 1.68277,-11.63516l-1.00966,-8.60617c-0.04808,-0.19232 0.19232,-0.33655 0.38463,-0.2404l5.81758,3.79826c0,0 2.16356,-0.81735 4.42329,-0.9135c1.34622,-0.09616 2.50012,0 3.60594,0.19232z"></path><path stroke-linejoin="miter" stroke-linecap="butt" stroke-width="1" stroke="none" fill="#ffffff" d="M287.5796,178.34688c0,0 3.31746,0.86543 3.89441,3.60594c0.57695,2.74051 -1.73085,7.69267 -10.67358,9.42352c-11.63516,2.40396 -17.16427,-4.51944 -13.94296,-9.61584c3.22131,-5.14447 8.75041,-0.76927 12.78906,-1.05774c3.4617,-0.2404 3.84633,-3.26938 7.93307,-2.35588z"></path><path stroke-linejoin="round" stroke-linecap="round" stroke-width="1.2" stroke="#001026" fill="#ffffff" d="M272.43465,183.49135c0,-0.19232 0.19232,-0.33655 0.38463,-0.28848c0.9135,0.33655 3.50978,1.10582 6.39453,1.29814c2.59628,0.14424 4.13481,0 4.856,-0.14424c0.2404,-0.04808 0.43271,0.19232 0.33655,0.43271c-0.43271,1.29814 -2.25972,4.90408 -7.30804,4.6156c-4.37521,-0.48079 -4.80792,-3.55786 -4.66368,-5.91374z"></path><path stroke-linejoin="round" stroke-linecap="round" stroke-width="1.2" stroke="#001026" fill="none" d="M296.42617,178.87575c-2.25972,1.82701 -5.72142,1.87509 -5.72142,1.87509"></path><path stroke-linejoin="round" stroke-linecap="round" stroke-width="1.2" stroke="#001026" fill="none" d="M295.80114,184.26062c-3.02899,0.2404 -4.90408,-0.67311 -4.90408,-0.67311"></path><path stroke-linejoin="round" stroke-linecap="round" stroke-width="1.2" stroke="#001026" fill="#001026" d="M279.45422,179.4527c1.00966,0 2.0674,0.09616 2.11548,0.43271c0.04808,0.67311 -0.67311,2.01933 -1.44238,2.0674c-0.86543,0.09616 -2.88475,-1.10582 -2.88475,-1.87509c-0.04808,-0.57695 1.25006,-0.62503 2.21164,-0.62503z"></path><path stroke-linejoin="round" stroke-linecap="round" stroke-width="1.2" stroke="#001026" fill="none" d="M257.81858,178.73151c0,0 4.13481,1.34622 5.81758,2.83667"></path><path stroke-linejoin="round" stroke-linecap="round" stroke-width="1.2" stroke="#001026" fill="none" d="M263.7804,183.25095c-2.0674,0.81735 -5.62526,0.28848 -5.62526,0.28848"></path><g><path stroke-linejoin="round" stroke-linecap="round" stroke-width="1.2" stroke="#001026" fill="#ffffff" d="M285.12756,173.82743c1.3943,2.16356 1.44238,4.6156 0.09616,5.48103c-1.34622,0.86543 -3.55786,-0.14424 -5.00024,-2.3078c-1.3943,-2.16356 -1.44238,-4.6156 -0.09616,-5.48103c1.34622,-0.9135 3.60594,0.14424 5.00024,2.3078z"></path><path stroke-linejoin="miter" stroke-linecap="butt" stroke-width="1" stroke="none" fill="#001026" d="M284.93524,176.56795c0,0.52887 -0.38463,0.96158 -0.86543,0.96158c-0.48079,0 -0.86543,-0.43271 -0.86543,-0.96158c0,-0.52887 0.38463,-0.96158 0.86543,-0.96158c0.48079,0 0.86543,0.43271 0.86543,0.96158"></path></g><g><path stroke-linejoin="round" stroke-linecap="round" stroke-width="1.2" stroke="#001026" fill="#ffffff" d="M273.20392,175.17365c1.44238,2.11548 1.34622,4.71176 0.04808,5.62526c-1.58661,0.9135 -3.7021,0.2404 -5.14447,-1.87509c-1.49045,-2.11548 -1.58661,-4.856 -0.09616,-5.91374c1.49045,-1.10582 3.75018,0.04808 5.19255,2.16356z"></path><path stroke-linejoin="miter" stroke-linecap="butt" stroke-width="1" stroke="none" fill="#001026" d="M272.91545,177.96224c0,0.52887 -0.38463,0.96158 -0.86543,0.96158c-0.48079,0 -0.86543,-0.43271 -0.86543,-0.96158c0,-0.52887 0.38463,-0.96158 0.86543,-0.96158c0.48079,0.04808 0.86543,0.43271 0.86543,0.96158"></path></g></g></g></g></svg>